<?xml version="1.0" encoding="utf-8" standalone="no"?>
<!DOCTYPE svg PUBLIC "-//W3C//DTD SVG 1.1//EN"
  "http://www.w3.org/Graphics/SVG/1.1/DTD/svg11.dtd">
<svg xmlns:xlink="http://www.w3.org/1999/xlink" width="460.8pt" height="345.6pt" viewBox="0 0 460.8 345.6" xmlns="http://www.w3.org/2000/svg" version="1.1">
 <metadata>
  <rdf:RDF xmlns:dc="http://purl.org/dc/elements/1.1/" xmlns:cc="http://creativecommons.org/ns#" xmlns:rdf="http://www.w3.org/1999/02/22-rdf-syntax-ns#">
   <cc:Work>
    <dc:type rdf:resource="http://purl.org/dc/dcmitype/StillImage"/>
    <dc:date>2025-02-05T18:52:41.208635</dc:date>
    <dc:format>image/svg+xml</dc:format>
    <dc:creator>
     <cc:Agent>
      <dc:title>Matplotlib v3.9.3, https://matplotlib.org/</dc:title>
     </cc:Agent>
    </dc:creator>
   </cc:Work>
  </rdf:RDF>
 </metadata>
 <defs>
  <style type="text/css">*{stroke-linejoin: round; stroke-linecap: butt}</style>
 </defs>
 <g id="figure_1">
  <g id="patch_1">
   <path d="M 0 345.6 
L 460.8 345.6 
L 460.8 0 
L 0 0 
z
" style="fill: #ffffff"/>
  </g>
  <g id="axes_1">
   <g id="patch_2">
    <path d="M 57.6 306.295677 
L 414.72 306.295677 
L 414.72 42.760323 
L 57.6 42.760323 
z
" style="fill: #ffffff"/>
   </g>
   <g id="matplotlib.axis_1">
    <g id="xtick_1">
     <g id="line2d_1">
      <defs>
       <path id="m6b92e8632a" d="M 0 0 
L 0 3.5 
" style="stroke: #000000; stroke-width: 0.8"/>
      </defs>
      <g>
       <use xlink:href="#m6b92e8632a" x="85.101839" y="306.295677" style="stroke: #000000; stroke-width: 0.8"/>
      </g>
     </g>
     <g id="text_1">
      <!-- −7 -->
      <g transform="translate(77.730745 320.894114) scale(0.1 -0.1)">
       <defs>
        <path id="DejaVuSans-2212" d="M 678 2272 
L 4684 2272 
L 4684 1741 
L 678 1741 
L 678 2272 
z
" transform="scale(0.015625)"/>
        <path id="DejaVuSans-37" d="M 525 4666 
L 3525 4666 
L 3525 4397 
L 1831 0 
L 1172 0 
L 2766 4134 
L 525 4134 
L 525 4666 
z
" transform="scale(0.015625)"/>
       </defs>
       <use xlink:href="#DejaVuSans-2212"/>
       <use xlink:href="#DejaVuSans-37" x="83.789062"/>
      </g>
     </g>
    </g>
    <g id="xtick_2">
     <g id="line2d_2">
      <g>
       <use xlink:href="#m6b92e8632a" x="146.38913" y="306.295677" style="stroke: #000000; stroke-width: 0.8"/>
      </g>
     </g>
     <g id="text_2">
      <!-- −6 -->
      <g transform="translate(139.018036 320.894114) scale(0.1 -0.1)">
       <defs>
        <path id="DejaVuSans-36" d="M 2113 2584 
Q 1688 2584 1439 2293 
Q 1191 2003 1191 1497 
Q 1191 994 1439 701 
Q 1688 409 2113 409 
Q 2538 409 2786 701 
Q 3034 994 3034 1497 
Q 3034 2003 2786 2293 
Q 2538 2584 2113 2584 
z
M 3366 4563 
L 3366 3988 
Q 3128 4100 2886 4159 
Q 2644 4219 2406 4219 
Q 1781 4219 1451 3797 
Q 1122 3375 1075 2522 
Q 1259 2794 1537 2939 
Q 1816 3084 2150 3084 
Q 2853 3084 3261 2657 
Q 3669 2231 3669 1497 
Q 3669 778 3244 343 
Q 2819 -91 2113 -91 
Q 1303 -91 875 529 
Q 447 1150 447 2328 
Q 447 3434 972 4092 
Q 1497 4750 2381 4750 
Q 2619 4750 2861 4703 
Q 3103 4656 3366 4563 
z
" transform="scale(0.015625)"/>
       </defs>
       <use xlink:href="#DejaVuSans-2212"/>
       <use xlink:href="#DejaVuSans-36" x="83.789062"/>
      </g>
     </g>
    </g>
    <g id="xtick_3">
     <g id="line2d_3">
      <g>
       <use xlink:href="#m6b92e8632a" x="207.676422" y="306.295677" style="stroke: #000000; stroke-width: 0.8"/>
      </g>
     </g>
     <g id="text_3">
      <!-- −5 -->
      <g transform="translate(200.305328 320.894114) scale(0.1 -0.1)">
       <defs>
        <path id="DejaVuSans-35" d="M 691 4666 
L 3169 4666 
L 3169 4134 
L 1269 4134 
L 1269 2991 
Q 1406 3038 1543 3061 
Q 1681 3084 1819 3084 
Q 2600 3084 3056 2656 
Q 3513 2228 3513 1497 
Q 3513 744 3044 326 
Q 2575 -91 1722 -91 
Q 1428 -91 1123 -41 
Q 819 9 494 109 
L 494 744 
Q 775 591 1075 516 
Q 1375 441 1709 441 
Q 2250 441 2565 725 
Q 2881 1009 2881 1497 
Q 2881 1984 2565 2268 
Q 2250 2553 1709 2553 
Q 1456 2553 1204 2497 
Q 953 2441 691 2322 
L 691 4666 
z
" transform="scale(0.015625)"/>
       </defs>
       <use xlink:href="#DejaVuSans-2212"/>
       <use xlink:href="#DejaVuSans-35" x="83.789062"/>
      </g>
     </g>
    </g>
    <g id="xtick_4">
     <g id="line2d_4">
      <g>
       <use xlink:href="#m6b92e8632a" x="268.963713" y="306.295677" style="stroke: #000000; stroke-width: 0.8"/>
      </g>
     </g>
     <g id="text_4">
      <!-- −4 -->
      <g transform="translate(261.592619 320.894114) scale(0.1 -0.1)">
       <defs>
        <path id="DejaVuSans-34" d="M 2419 4116 
L 825 1625 
L 2419 1625 
L 2419 4116 
z
M 2253 4666 
L 3047 4666 
L 3047 1625 
L 3713 1625 
L 3713 1100 
L 3047 1100 
L 3047 0 
L 2419 0 
L 2419 1100 
L 313 1100 
L 313 1709 
L 2253 4666 
z
" transform="scale(0.015625)"/>
       </defs>
       <use xlink:href="#DejaVuSans-2212"/>
       <use xlink:href="#DejaVuSans-34" x="83.789062"/>
      </g>
     </g>
    </g>
    <g id="xtick_5">
     <g id="line2d_5">
      <g>
       <use xlink:href="#m6b92e8632a" x="330.251005" y="306.295677" style="stroke: #000000; stroke-width: 0.8"/>
      </g>
     </g>
     <g id="text_5">
      <!-- −3 -->
      <g transform="translate(322.879911 320.894114) scale(0.1 -0.1)">
       <defs>
        <path id="DejaVuSans-33" d="M 2597 2516 
Q 3050 2419 3304 2112 
Q 3559 1806 3559 1356 
Q 3559 666 3084 287 
Q 2609 -91 1734 -91 
Q 1441 -91 1130 -33 
Q 819 25 488 141 
L 488 750 
Q 750 597 1062 519 
Q 1375 441 1716 441 
Q 2309 441 2620 675 
Q 2931 909 2931 1356 
Q 2931 1769 2642 2001 
Q 2353 2234 1838 2234 
L 1294 2234 
L 1294 2753 
L 1863 2753 
Q 2328 2753 2575 2939 
Q 2822 3125 2822 3475 
Q 2822 3834 2567 4026 
Q 2313 4219 1838 4219 
Q 1578 4219 1281 4162 
Q 984 4106 628 3988 
L 628 4550 
Q 988 4650 1302 4700 
Q 1616 4750 1894 4750 
Q 2613 4750 3031 4423 
Q 3450 4097 3450 3541 
Q 3450 3153 3228 2886 
Q 3006 2619 2597 2516 
z
" transform="scale(0.015625)"/>
       </defs>
       <use xlink:href="#DejaVuSans-2212"/>
       <use xlink:href="#DejaVuSans-33" x="83.789062"/>
      </g>
     </g>
    </g>
    <g id="xtick_6">
     <g id="line2d_6">
      <g>
       <use xlink:href="#m6b92e8632a" x="391.538296" y="306.295677" style="stroke: #000000; stroke-width: 0.8"/>
      </g>
     </g>
     <g id="text_6">
      <!-- −2 -->
      <g transform="translate(384.167202 320.894114) scale(0.1 -0.1)">
       <defs>
        <path id="DejaVuSans-32" d="M 1228 531 
L 3431 531 
L 3431 0 
L 469 0 
L 469 531 
Q 828 903 1448 1529 
Q 2069 2156 2228 2338 
Q 2531 2678 2651 2914 
Q 2772 3150 2772 3378 
Q 2772 3750 2511 3984 
Q 2250 4219 1831 4219 
Q 1534 4219 1204 4116 
Q 875 4013 500 3803 
L 500 4441 
Q 881 4594 1212 4672 
Q 1544 4750 1819 4750 
Q 2544 4750 2975 4387 
Q 3406 4025 3406 3419 
Q 3406 3131 3298 2873 
Q 3191 2616 2906 2266 
Q 2828 2175 2409 1742 
Q 1991 1309 1228 531 
z
" transform="scale(0.015625)"/>
       </defs>
       <use xlink:href="#DejaVuSans-2212"/>
       <use xlink:href="#DejaVuSans-32" x="83.789062"/>
      </g>
     </g>
    </g>
   </g>
   <g id="matplotlib.axis_2">
    <g id="ytick_1">
     <g id="line2d_7">
      <defs>
       <path id="mfe40bf18b7" d="M 0 0 
L -3.5 0 
" style="stroke: #000000; stroke-width: 0.8"/>
      </defs>
      <g>
       <use xlink:href="#mfe40bf18b7" x="57.6" y="306.295677" style="stroke: #000000; stroke-width: 0.8"/>
      </g>
     </g>
     <g id="text_7">
      <!-- −1.5 -->
      <g transform="translate(26.317187 310.094895) scale(0.1 -0.1)">
       <defs>
        <path id="DejaVuSans-31" d="M 794 531 
L 1825 531 
L 1825 4091 
L 703 3866 
L 703 4441 
L 1819 4666 
L 2450 4666 
L 2450 531 
L 3481 531 
L 3481 0 
L 794 0 
L 794 531 
z
" transform="scale(0.015625)"/>
        <path id="DejaVuSans-2e" d="M 684 794 
L 1344 794 
L 1344 0 
L 684 0 
L 684 794 
z
" transform="scale(0.015625)"/>
       </defs>
       <use xlink:href="#DejaVuSans-2212"/>
       <use xlink:href="#DejaVuSans-31" x="83.789062"/>
       <use xlink:href="#DejaVuSans-2e" x="147.412109"/>
       <use xlink:href="#DejaVuSans-35" x="179.199219"/>
      </g>
     </g>
    </g>
    <g id="ytick_2">
     <g id="line2d_8">
      <g>
       <use xlink:href="#mfe40bf18b7" x="57.6" y="275.652031" style="stroke: #000000; stroke-width: 0.8"/>
      </g>
     </g>
     <g id="text_8">
      <!-- −1.0 -->
      <g transform="translate(26.317187 279.45125) scale(0.1 -0.1)">
       <defs>
        <path id="DejaVuSans-30" d="M 2034 4250 
Q 1547 4250 1301 3770 
Q 1056 3291 1056 2328 
Q 1056 1369 1301 889 
Q 1547 409 2034 409 
Q 2525 409 2770 889 
Q 3016 1369 3016 2328 
Q 3016 3291 2770 3770 
Q 2525 4250 2034 4250 
z
M 2034 4750 
Q 2819 4750 3233 4129 
Q 3647 3509 3647 2328 
Q 3647 1150 3233 529 
Q 2819 -91 2034 -91 
Q 1250 -91 836 529 
Q 422 1150 422 2328 
Q 422 3509 836 4129 
Q 1250 4750 2034 4750 
z
" transform="scale(0.015625)"/>
       </defs>
       <use xlink:href="#DejaVuSans-2212"/>
       <use xlink:href="#DejaVuSans-31" x="83.789062"/>
       <use xlink:href="#DejaVuSans-2e" x="147.412109"/>
       <use xlink:href="#DejaVuSans-30" x="179.199219"/>
      </g>
     </g>
    </g>
    <g id="ytick_3">
     <g id="line2d_9">
      <g>
       <use xlink:href="#mfe40bf18b7" x="57.6" y="245.008385" style="stroke: #000000; stroke-width: 0.8"/>
      </g>
     </g>
     <g id="text_9">
      <!-- −0.5 -->
      <g transform="translate(26.317187 248.807604) scale(0.1 -0.1)">
       <use xlink:href="#DejaVuSans-2212"/>
       <use xlink:href="#DejaVuSans-30" x="83.789062"/>
       <use xlink:href="#DejaVuSans-2e" x="147.412109"/>
       <use xlink:href="#DejaVuSans-35" x="179.199219"/>
      </g>
     </g>
    </g>
    <g id="ytick_4">
     <g id="line2d_10">
      <g>
       <use xlink:href="#mfe40bf18b7" x="57.6" y="214.364739" style="stroke: #000000; stroke-width: 0.8"/>
      </g>
     </g>
     <g id="text_10">
      <!-- 0.0 -->
      <g transform="translate(34.696875 218.163958) scale(0.1 -0.1)">
       <use xlink:href="#DejaVuSans-30"/>
       <use xlink:href="#DejaVuSans-2e" x="63.623047"/>
       <use xlink:href="#DejaVuSans-30" x="95.410156"/>
      </g>
     </g>
    </g>
    <g id="ytick_5">
     <g id="line2d_11">
      <g>
       <use xlink:href="#mfe40bf18b7" x="57.6" y="183.721094" style="stroke: #000000; stroke-width: 0.8"/>
      </g>
     </g>
     <g id="text_11">
      <!-- 0.5 -->
      <g transform="translate(34.696875 187.520312) scale(0.1 -0.1)">
       <use xlink:href="#DejaVuSans-30"/>
       <use xlink:href="#DejaVuSans-2e" x="63.623047"/>
       <use xlink:href="#DejaVuSans-35" x="95.410156"/>
      </g>
     </g>
    </g>
    <g id="ytick_6">
     <g id="line2d_12">
      <g>
       <use xlink:href="#mfe40bf18b7" x="57.6" y="153.077448" style="stroke: #000000; stroke-width: 0.8"/>
      </g>
     </g>
     <g id="text_12">
      <!-- 1.0 -->
      <g transform="translate(34.696875 156.876667) scale(0.1 -0.1)">
       <use xlink:href="#DejaVuSans-31"/>
       <use xlink:href="#DejaVuSans-2e" x="63.623047"/>
       <use xlink:href="#DejaVuSans-30" x="95.410156"/>
      </g>
     </g>
    </g>
    <g id="ytick_7">
     <g id="line2d_13">
      <g>
       <use xlink:href="#mfe40bf18b7" x="57.6" y="122.433802" style="stroke: #000000; stroke-width: 0.8"/>
      </g>
     </g>
     <g id="text_13">
      <!-- 1.5 -->
      <g transform="translate(34.696875 126.233021) scale(0.1 -0.1)">
       <use xlink:href="#DejaVuSans-31"/>
       <use xlink:href="#DejaVuSans-2e" x="63.623047"/>
       <use xlink:href="#DejaVuSans-35" x="95.410156"/>
      </g>
     </g>
    </g>
    <g id="ytick_8">
     <g id="line2d_14">
      <g>
       <use xlink:href="#mfe40bf18b7" x="57.6" y="91.790156" style="stroke: #000000; stroke-width: 0.8"/>
      </g>
     </g>
     <g id="text_14">
      <!-- 2.0 -->
      <g transform="translate(34.696875 95.589375) scale(0.1 -0.1)">
       <use xlink:href="#DejaVuSans-32"/>
       <use xlink:href="#DejaVuSans-2e" x="63.623047"/>
       <use xlink:href="#DejaVuSans-30" x="95.410156"/>
      </g>
     </g>
    </g>
    <g id="ytick_9">
     <g id="line2d_15">
      <g>
       <use xlink:href="#mfe40bf18b7" x="57.6" y="61.146511" style="stroke: #000000; stroke-width: 0.8"/>
      </g>
     </g>
     <g id="text_15">
      <!-- 2.5 -->
      <g transform="translate(34.696875 64.945729) scale(0.1 -0.1)">
       <use xlink:href="#DejaVuSans-32"/>
       <use xlink:href="#DejaVuSans-2e" x="63.623047"/>
       <use xlink:href="#DejaVuSans-35" x="95.410156"/>
      </g>
     </g>
    </g>
   </g>
   <g id="line2d_16">
    <path d="M 160.512091 151.358317 
L 155.215714 150.99521 
L 149.235138 150.816778 
L 142.597619 150.851531 
L 135.36607 151.118573 
L 127.647083 151.624775 
L 119.106681 152.413224 
L 110.262993 153.452485 
L 102.239935 154.343068 
L 96.381197 154.785814 
L 91.741068 154.936943 
L 87.691664 154.841234 
L 84.581321 154.539183 
L 82.232566 154.100419 
L 80.227614 153.49287 
L 78.779726 152.83347 
L 77.579037 152.042319 
L 76.623056 151.115842 
L 76.011541 150.237824 
L 75.566794 149.261277 
L 75.287375 148.184133 
L 75.215406 147.075033 
L 75.436272 146.068682 
L 75.894768 145.102535 
L 76.569074 144.177179 
L 77.632393 143.121418 
L 78.937361 142.126249 
L 80.714943 141.043151 
L 83.009579 139.910057 
L 85.819692 138.771729 
L 89.403853 137.58138 
L 93.24457 136.541803 
L 97.242249 135.681034 
L 100.29678 135.195264 
L 109.35198 134.045873 
L 118.861914 133.061922 
L 129.739356 132.152368 
L 141.792661 131.3618 
L 154.666113 130.732554 
L 167.798528 130.30279 
L 180.378083 130.104405 
L 190.664581 130.149108 
L 199.403595 130.420886 
L 211.197525 130.993891 
L 222.317323 131.746356 
L 232.634106 132.646316 
L 243.230188 133.787528 
L 254.092648 135.199146 
L 263.961345 136.704493 
L 274.021225 138.467005 
L 284.26321 140.507158 
L 293.367196 142.536141 
L 302.597577 144.807086 
L 309.601087 146.692522 
L 309.601087 146.692522 
" clip-path="url(#p7775ef4910)" style="fill: none; stroke: #000000; stroke-width: 1.5; stroke-linecap: square"/>
   </g>
   <g id="line2d_17">
    <path d="M 237.394637 147.995296 
L 238.370953 147.845989 
L 239.338461 147.699552 
L 240.297303 147.555988 
L 241.24762 147.415304 
L 242.189553 147.277504 
L 243.123245 147.142592 
L 244.048835 147.010574 
L 244.966465 146.881454 
L 245.876276 146.755238 
L 246.77841 146.63193 
L 247.673007 146.511535 
L 248.560209 146.394059 
L 249.440158 146.279505 
L 250.312994 146.167879 
L 251.178858 146.059185 
L 252.037892 145.95343 
L 252.890237 145.850616 
L 253.736034 145.75075 
L 254.575425 145.653836 
L 255.408551 145.55988 
L 256.235552 145.468885 
L 257.05657 145.380857 
L 257.871747 145.295801 
L 258.681223 145.213722 
L 259.48514 145.134624 
L 260.283639 145.058512 
L 261.076861 144.985392 
L 261.864947 144.915268 
L 262.648039 144.848145 
L 263.426278 144.784027 
L 264.199805 144.722921 
L 264.968761 144.66483 
L 265.733288 144.60976 
L 266.493526 144.557716 
L 267.249617 144.508702 
L 268.001702 144.462723 
L 268.749923 144.419784 
L 269.49442 144.37989 
L 270.235335 144.343046 
L 270.97281 144.309256 
L 271.706984 144.278527 
L 272.438 144.250862 
L 273.165998 144.226266 
L 273.89112 144.204745 
L 274.613508 144.186302 
L 275.333301 144.170944 
L 276.050642 144.158675 
L 276.765672 144.1495 
L 277.478532 144.143423 
L 278.189363 144.14045 
L 278.898307 144.140585 
L 279.605504 144.143834 
L 280.311096 144.150201 
L 281.015224 144.159691 
L 281.718029 144.172309 
L 282.419653 144.18806 
L 283.120236 144.206949 
L 283.81992 144.228981 
L 284.518847 144.25416 
L 285.217157 144.282491 
L 285.914991 144.31398 
L 286.612492 144.348631 
L 287.309799 144.386449 
L 288.007054 144.427439 
L 288.704399 144.471606 
L 289.401975 144.518954 
L 290.099922 144.569489 
L 290.798383 144.623216 
L 291.497498 144.680139 
L 292.197408 144.740263 
L 292.898255 144.803593 
L 293.600181 144.870135 
L 294.303325 144.939892 
L 295.00783 145.01287 
L 295.713836 145.089074 
L 296.421485 145.168508 
L 297.130919 145.251178 
L 297.842277 145.337088 
L 298.555702 145.426244 
L 299.271335 145.518649 
L 299.989317 145.614309 
L 300.709789 145.713229 
L 301.432892 145.815414 
L 302.158768 145.920869 
L 302.887558 146.029598 
L 303.619402 146.141607 
L 304.354443 146.256899 
L 305.092822 146.375481 
L 305.834679 146.497357 
L 306.580156 146.622532 
L 307.329394 146.751011 
L 308.082534 146.882798 
L 308.839718 147.017899 
L 309.601087 147.156318 
L 309.601087 146.692522 
" clip-path="url(#p7775ef4910)" style="fill: none; stroke: #000000; stroke-width: 1.5; stroke-linecap: square"/>
   </g>
   <g id="line2d_18">
    <path d="M 237.394637 177.034016 
L 245.563496 175.45466 
L 271.685097 170.215276 
L 279.308379 168.963702 
L 286.116845 168.061914 
L 292.053272 167.497099 
L 297.107793 167.225577 
L 301.988454 167.196026 
L 306.002146 167.387978 
L 309.283494 167.736401 
L 312.664893 168.350897 
L 316.364493 169.243604 
L 320.931382 170.564169 
L 326.430329 172.376621 
L 333.551959 174.967651 
L 343.024069 178.681386 
L 358.115426 184.889994 
L 367.235252 188.639119 
L 367.235252 188.639119 
" clip-path="url(#p7775ef4910)" style="fill: none; stroke: #000000; stroke-width: 1.5; stroke-linecap: square"/>
   </g>
   <g id="line2d_19">
    <path d="M 339.899752 188.002896 
L 340.32549 187.995219 
L 340.591202 187.987772 
L 340.85324 187.980564 
L 341.111742 187.973604 
L 341.366846 187.9669 
L 341.61869 187.960461 
L 341.867411 187.954295 
L 342.113148 187.948412 
L 342.35604 187.94282 
L 342.596224 187.937526 
L 342.833838 187.932541 
L 343.06902 187.927873 
L 343.301908 187.92353 
L 343.532641 187.919521 
L 343.761357 187.915855 
L 343.988193 187.91254 
L 344.213288 187.909584 
L 344.43678 187.906997 
L 344.658806 187.904788 
L 344.879505 187.902964 
L 345.099016 187.901534 
L 345.317475 187.900508 
L 345.535022 187.899893 
L 345.751793 187.899698 
L 345.967928 187.899933 
L 346.183565 187.900605 
L 346.39884 187.901723 
L 346.613894 187.903296 
L 346.828863 187.905332 
L 347.043885 187.907841 
L 347.259099 187.91083 
L 347.474643 187.914309 
L 347.690655 187.918285 
L 347.907273 187.922768 
L 348.124635 187.927767 
L 348.342879 187.933289 
L 348.562143 187.939344 
L 348.782566 187.94594 
L 349.004285 187.953086 
L 349.227438 187.96079 
L 349.452164 187.969061 
L 349.6786 187.977908 
L 349.906885 187.98734 
L 350.137156 187.997364 
L 350.369553 188.00799 
L 350.604212 188.019226 
L 350.841272 188.031081 
L 351.080871 188.043563 
L 351.323148 188.056681 
L 351.568239 188.070445 
L 351.816284 188.084861 
L 352.06742 188.09994 
L 352.321785 188.115689 
L 352.579518 188.132118 
L 352.840756 188.149234 
L 353.105638 188.167047 
L 353.374302 188.185565 
L 353.646885 188.204797 
L 353.923527 188.224751 
L 354.204364 188.245437 
L 354.489535 188.266862 
L 354.779178 188.289036 
L 355.073432 188.311966 
L 355.372433 188.335662 
L 355.676321 188.360132 
L 355.985233 188.385386 
L 356.299308 188.41143 
L 356.618683 188.438275 
L 356.943497 188.465929 
L 357.273887 188.4944 
L 357.609993 188.523697 
L 357.951951 188.553828 
L 358.299899 188.584803 
L 358.653977 188.61663 
L 359.014322 188.649318 
L 359.381072 188.682874 
L 359.754365 188.717309 
L 360.13434 188.75263 
L 360.521133 188.788846 
L 360.914885 188.825966 
L 361.315731 188.863998 
L 361.723812 188.902951 
L 362.139264 188.942834 
L 362.562225 188.983655 
L 362.992835 189.025423 
L 363.43123 189.068146 
L 363.877549 189.111834 
L 364.33193 189.156494 
L 364.794512 189.202136 
L 365.265431 189.248768 
L 365.744827 189.296398 
L 366.232837 189.345036 
L 366.729599 189.39469 
L 367.235252 189.445368 
L 367.235252 188.639119 
" clip-path="url(#p7775ef4910)" style="fill: none; stroke: #000000; stroke-width: 1.5; stroke-linecap: square"/>
   </g>
   <g id="line2d_20">
    <path d="M 339.899752 198.92846 
L 339.899752 198.818101 
L 339.899752 198.707742 
L 339.899752 198.597382 
L 339.899752 198.487023 
L 339.899752 198.376664 
L 339.899752 198.266305 
L 339.899752 198.155945 
L 339.899752 198.045586 
L 339.899752 197.935227 
L 339.899752 197.824868 
L 339.899752 197.714508 
L 339.899752 197.604149 
L 339.899752 197.49379 
L 339.899752 197.383431 
L 339.899752 197.273072 
L 339.899752 197.162712 
L 339.899752 197.052353 
L 339.899752 196.941994 
L 339.899752 196.831635 
L 339.899752 196.721275 
L 339.899752 196.610916 
L 339.899752 196.500557 
L 339.899752 196.390198 
L 339.899752 196.279838 
L 339.899752 196.169479 
L 339.899752 196.05912 
L 339.899752 195.948761 
L 339.899752 195.838402 
L 339.899752 195.728042 
L 339.899752 195.617683 
L 339.899752 195.507324 
L 339.899752 195.396965 
L 339.899752 195.286605 
L 339.899752 195.176246 
L 339.899752 195.065887 
L 339.899752 194.955528 
L 339.899752 194.845168 
L 339.899752 194.734809 
L 339.899752 194.62445 
L 339.899752 194.514091 
L 339.899752 194.403732 
L 339.899752 194.293372 
L 339.899752 194.183013 
L 339.899752 194.072654 
L 339.899752 193.962295 
L 339.899752 193.851935 
L 339.899752 193.741576 
L 339.899752 193.631217 
L 339.899752 193.520858 
L 339.899752 193.410499 
L 339.899752 193.300139 
L 339.899752 193.18978 
L 339.899752 193.079421 
L 339.899752 192.969062 
L 339.899752 192.858702 
L 339.899752 192.748343 
L 339.899752 192.637984 
L 339.899752 192.527625 
L 339.899752 192.417265 
L 339.899752 192.306906 
L 339.899752 192.196547 
L 339.899752 192.086188 
L 339.899752 191.975829 
L 339.899752 191.865469 
L 339.899752 191.75511 
L 339.899752 191.644751 
L 339.899752 191.534392 
L 339.899752 191.424032 
L 339.899752 191.313673 
L 339.899752 191.203314 
L 339.899752 191.092955 
L 339.899752 190.982595 
L 339.899752 190.872236 
L 339.899752 190.761877 
L 339.899752 190.651518 
L 339.899752 190.541159 
L 339.899752 190.430799 
L 339.899752 190.32044 
L 339.899752 190.210081 
L 339.899752 190.099722 
L 339.899752 189.989362 
L 339.899752 189.879003 
L 339.899752 189.768644 
L 339.899752 189.658285 
L 339.899752 189.547925 
L 339.899752 189.437566 
L 339.899752 189.327207 
L 339.899752 189.216848 
L 339.899752 189.106489 
L 339.899752 188.996129 
L 339.899752 188.88577 
L 339.899752 188.775411 
L 339.899752 188.665052 
L 339.899752 188.554692 
L 339.899752 188.444333 
L 339.899752 188.333974 
L 339.899752 188.223615 
L 339.899752 188.113255 
L 339.899752 188.002896 
" clip-path="url(#p7775ef4910)" style="fill: none; stroke: #000000; stroke-width: 1.5; stroke-linecap: square"/>
   </g>
   <g id="line2d_21">
    <path d="M 339.899752 198.92846 
L 353.736471 198.855712 
L 357.672625 199.0107 
L 361.879558 199.390632 
L 365.99182 200.00234 
L 369.668962 200.762776 
L 373.791515 201.853962 
L 378.019571 203.218085 
L 382.422155 204.869339 
L 387.548962 207.034296 
L 393.585903 209.834095 
L 398.487273 212.248205 
L 398.487273 212.248205 
" clip-path="url(#p7775ef4910)" style="fill: none; stroke: #000000; stroke-width: 1.5; stroke-linecap: square"/>
   </g>
   <g id="line2d_22">
    <path d="M 73.832727 214.364739 
L 77.112066 214.364739 
L 80.391405 214.364739 
L 83.670744 214.364739 
L 86.950083 214.364739 
L 90.229421 214.364739 
L 93.50876 214.364739 
L 96.788099 214.364739 
L 100.067438 214.364739 
L 103.346777 214.364739 
L 106.626116 214.364739 
L 109.905455 214.364739 
L 113.184793 214.364739 
L 116.464132 214.364739 
L 119.743471 214.364739 
L 123.02281 214.364739 
L 126.302149 214.364739 
L 129.581488 214.364739 
L 132.860826 214.364739 
L 136.140165 214.364739 
L 139.419504 214.364739 
L 142.698843 214.364739 
L 145.978182 214.364739 
L 149.257521 214.364739 
L 152.53686 214.364739 
L 155.816198 214.364739 
L 159.095537 214.364739 
L 162.374876 214.364739 
L 165.654215 214.364739 
L 168.933554 214.364739 
L 172.212893 214.364739 
L 175.492231 214.364739 
L 178.77157 214.364739 
L 182.050909 214.364739 
L 185.330248 214.364739 
L 188.609587 214.364739 
L 191.888926 214.364739 
L 195.168264 214.364739 
L 198.447603 214.364739 
L 201.726942 214.364739 
L 205.006281 214.364739 
L 208.28562 214.364739 
L 211.564959 214.364739 
L 214.844298 214.364739 
L 218.123636 214.364739 
L 221.402975 214.364739 
L 224.682314 214.364739 
L 227.961653 214.364739 
L 231.240992 214.364739 
L 234.520331 214.364739 
L 237.799669 214.364739 
L 241.079008 214.364739 
L 244.358347 214.364739 
L 247.637686 214.364739 
L 250.917025 214.364739 
L 254.196364 214.364739 
L 257.475702 214.364739 
L 260.755041 214.364739 
L 264.03438 214.364739 
L 267.313719 214.364739 
L 270.593058 214.364739 
L 273.872397 214.364739 
L 277.151736 214.364739 
L 280.431074 214.364739 
L 283.710413 214.364739 
L 286.989752 214.364739 
L 290.269091 214.364739 
L 293.54843 214.364739 
L 296.827769 214.364739 
L 300.107107 214.364739 
L 303.386446 214.364739 
L 306.665785 214.364739 
L 309.945124 214.364739 
L 313.224463 214.364739 
L 316.503802 214.364739 
L 319.78314 214.364739 
L 323.062479 214.364739 
L 326.341818 214.364739 
L 329.621157 214.364739 
L 332.900496 214.364739 
L 336.179835 214.364739 
L 339.459174 214.364739 
L 342.738512 214.364739 
L 346.017851 214.364739 
L 349.29719 214.364739 
L 352.576529 214.364739 
L 355.855868 214.364739 
L 359.135207 214.364739 
L 362.414545 214.364739 
L 365.693884 214.364739 
L 368.973223 214.364739 
L 372.252562 214.364739 
L 375.531901 214.364739 
L 378.81124 214.364739 
L 382.090579 214.364739 
L 385.369917 214.364739 
L 388.649256 214.364739 
L 391.928595 214.364739 
L 395.207934 214.364739 
L 398.487273 214.364739 
" clip-path="url(#p7775ef4910)" style="fill: none; stroke: #000000; stroke-width: 1.5; stroke-linecap: square"/>
   </g>
   <g id="line2d_23">
    <path d="M 160.512091 151.358317 
L 160.512091 151.760485 
L 160.512091 152.202467 
L 160.512091 152.644449 
L 160.512091 153.086431 
L 160.512091 153.528414 
L 160.512091 153.970396 
L 160.512091 154.412378 
L 160.512091 154.85436 
L 160.512091 155.296342 
L 160.512091 155.738324 
L 160.512091 156.180307 
L 160.512091 156.622289 
L 160.512091 157.064271 
L 160.512091 157.506253 
L 160.512091 157.948235 
L 160.512091 158.390217 
L 160.512091 158.8322 
L 160.512091 159.274182 
L 160.512091 159.716164 
L 160.512091 160.158146 
L 160.512091 160.600128 
L 160.512091 161.04211 
L 160.512091 161.484093 
L 160.512091 161.926075 
L 160.512091 162.368057 
L 160.512091 162.810039 
L 160.512091 163.252021 
L 160.512091 163.694003 
L 160.512091 164.135985 
L 160.512091 164.577968 
L 160.512091 165.01995 
L 160.512091 165.461932 
L 160.512091 165.903914 
L 160.512091 166.345896 
L 160.512091 166.787878 
L 160.512091 167.229861 
L 160.512091 167.671843 
L 160.512091 168.113825 
L 160.512091 168.555807 
L 160.512091 168.997789 
L 160.512091 169.439771 
L 160.512091 169.881754 
L 160.512091 170.323736 
L 160.512091 170.765718 
L 160.512091 171.2077 
L 160.512091 171.649682 
L 160.512091 172.091664 
L 160.512091 172.533647 
L 160.512091 172.975629 
L 160.512091 173.417611 
L 160.512091 173.859593 
L 160.512091 174.301575 
L 160.512091 174.743557 
L 160.512091 175.18554 
L 160.512091 175.627522 
L 160.512091 176.069504 
L 160.512091 176.511486 
L 160.512091 176.953468 
L 160.512091 177.39545 
L 160.512091 177.837433 
L 160.512091 178.279415 
L 160.512091 178.721397 
L 160.512091 179.163379 
L 160.512091 179.605361 
L 160.512091 180.047343 
L 160.512091 180.489326 
L 160.512091 180.931308 
L 160.512091 181.37329 
L 160.512091 181.815272 
L 160.512091 182.257254 
L 160.512091 182.699236 
L 160.512091 183.141219 
L 160.512091 183.583201 
L 160.512091 184.025183 
L 160.512091 184.467165 
L 160.512091 184.909147 
L 160.512091 185.351129 
L 160.512091 185.793112 
L 160.512091 186.235094 
L 160.512091 186.677076 
L 160.512091 187.119058 
L 160.512091 187.56104 
L 160.512091 188.003022 
L 160.512091 188.445005 
L 160.512091 188.886987 
L 160.512091 189.328969 
L 160.512091 189.770951 
L 160.512091 190.212933 
L 160.512091 190.654915 
L 160.512091 191.096898 
L 160.512091 191.53888 
L 160.512091 191.980862 
L 160.512091 192.422844 
L 160.512091 192.864826 
L 160.512091 193.306808 
L 160.512091 193.748791 
L 160.512091 194.190773 
L 160.512091 194.632755 
L 160.512091 195.074737 
" clip-path="url(#p7775ef4910)" style="fill: none; stroke: #000000; stroke-width: 1.5; stroke-linecap: square"/>
   </g>
   <g id="line2d_24">
    <path d="M 237.394637 147.995296 
L 237.394637 148.079606 
L 237.394637 148.376148 
L 237.394637 148.672689 
L 237.394637 148.969231 
L 237.394637 149.265773 
L 237.394637 149.562315 
L 237.394637 149.858857 
L 237.394637 150.155398 
L 237.394637 150.45194 
L 237.394637 150.748482 
L 237.394637 151.045024 
L 237.394637 151.341565 
L 237.394637 151.638107 
L 237.394637 151.934649 
L 237.394637 152.231191 
L 237.394637 152.527733 
L 237.394637 152.824274 
L 237.394637 153.120816 
L 237.394637 153.417358 
L 237.394637 153.7139 
L 237.394637 154.010441 
L 237.394637 154.306983 
L 237.394637 154.603525 
L 237.394637 154.900067 
L 237.394637 155.196609 
L 237.394637 155.49315 
L 237.394637 155.789692 
L 237.394637 156.086234 
L 237.394637 156.382776 
L 237.394637 156.679317 
L 237.394637 156.975859 
L 237.394637 157.272401 
L 237.394637 157.568943 
L 237.394637 157.865485 
L 237.394637 158.162026 
L 237.394637 158.458568 
L 237.394637 158.75511 
L 237.394637 159.051652 
L 237.394637 159.348193 
L 237.394637 159.644735 
L 237.394637 159.941277 
L 237.394637 160.237819 
L 237.394637 160.534361 
L 237.394637 160.830902 
L 237.394637 161.127444 
L 237.394637 161.423986 
L 237.394637 161.720528 
L 237.394637 162.017069 
L 237.394637 162.313611 
L 237.394637 162.610153 
L 237.394637 162.906695 
L 237.394637 163.203237 
L 237.394637 163.499778 
L 237.394637 163.79632 
L 237.394637 164.092862 
L 237.394637 164.389404 
L 237.394637 164.685945 
L 237.394637 164.982487 
L 237.394637 165.279029 
L 237.394637 165.575571 
L 237.394637 165.872113 
L 237.394637 166.168654 
L 237.394637 166.465196 
L 237.394637 166.761738 
L 237.394637 167.05828 
L 237.394637 167.354821 
L 237.394637 167.651363 
L 237.394637 167.947905 
L 237.394637 168.244447 
L 237.394637 168.540989 
L 237.394637 168.83753 
L 237.394637 169.134072 
L 237.394637 169.430614 
L 237.394637 169.727156 
L 237.394637 170.023697 
L 237.394637 170.320239 
L 237.394637 170.616781 
L 237.394637 170.913323 
L 237.394637 171.209865 
L 237.394637 171.506406 
L 237.394637 171.802948 
L 237.394637 172.09949 
L 237.394637 172.396032 
L 237.394637 172.692573 
L 237.394637 172.989115 
L 237.394637 173.285657 
L 237.394637 173.582199 
L 237.394637 173.878741 
L 237.394637 174.175282 
L 237.394637 174.471824 
L 237.394637 174.768366 
L 237.394637 175.064908 
L 237.394637 175.361449 
L 237.394637 175.657991 
L 237.394637 175.954533 
L 237.394637 176.251075 
L 237.394637 176.547617 
L 237.394637 176.844158 
L 237.394637 177.034016 
" clip-path="url(#p7775ef4910)" style="fill: none; stroke: #000000; stroke-width: 1.5; stroke-linecap: square"/>
   </g>
   <g id="line2d_25">
    <path d="M 398.487273 212.248205 
L 398.487273 212.269565 
L 398.487273 212.290945 
L 398.487273 212.312324 
L 398.487273 212.333703 
L 398.487273 212.355083 
L 398.487273 212.376462 
L 398.487273 212.397841 
L 398.487273 212.419221 
L 398.487273 212.4406 
L 398.487273 212.461979 
L 398.487273 212.483359 
L 398.487273 212.504738 
L 398.487273 212.526117 
L 398.487273 212.547497 
L 398.487273 212.568876 
L 398.487273 212.590255 
L 398.487273 212.611635 
L 398.487273 212.633014 
L 398.487273 212.654393 
L 398.487273 212.675773 
L 398.487273 212.697152 
L 398.487273 212.718531 
L 398.487273 212.739911 
L 398.487273 212.76129 
L 398.487273 212.782669 
L 398.487273 212.804049 
L 398.487273 212.825428 
L 398.487273 212.846807 
L 398.487273 212.868187 
L 398.487273 212.889566 
L 398.487273 212.910945 
L 398.487273 212.932325 
L 398.487273 212.953704 
L 398.487273 212.975083 
L 398.487273 212.996463 
L 398.487273 213.017842 
L 398.487273 213.039221 
L 398.487273 213.060601 
L 398.487273 213.08198 
L 398.487273 213.103359 
L 398.487273 213.124739 
L 398.487273 213.146118 
L 398.487273 213.167497 
L 398.487273 213.188877 
L 398.487273 213.210256 
L 398.487273 213.231635 
L 398.487273 213.253014 
L 398.487273 213.274394 
L 398.487273 213.295773 
L 398.487273 213.317152 
L 398.487273 213.338532 
L 398.487273 213.359911 
L 398.487273 213.38129 
L 398.487273 213.40267 
L 398.487273 213.424049 
L 398.487273 213.445428 
L 398.487273 213.466808 
L 398.487273 213.488187 
L 398.487273 213.509566 
L 398.487273 213.530946 
L 398.487273 213.552325 
L 398.487273 213.573704 
L 398.487273 213.595084 
L 398.487273 213.616463 
L 398.487273 213.637842 
L 398.487273 213.659222 
L 398.487273 213.680601 
L 398.487273 213.70198 
L 398.487273 213.72336 
L 398.487273 213.744739 
L 398.487273 213.766118 
L 398.487273 213.787498 
L 398.487273 213.808877 
L 398.487273 213.830256 
L 398.487273 213.851636 
L 398.487273 213.873015 
L 398.487273 213.894394 
L 398.487273 213.915774 
L 398.487273 213.937153 
L 398.487273 213.958532 
L 398.487273 213.979912 
L 398.487273 214.001291 
L 398.487273 214.02267 
L 398.487273 214.04405 
L 398.487273 214.065429 
L 398.487273 214.086808 
L 398.487273 214.108188 
L 398.487273 214.129567 
L 398.487273 214.150946 
L 398.487273 214.172326 
L 398.487273 214.193705 
L 398.487273 214.215084 
L 398.487273 214.236464 
L 398.487273 214.257843 
L 398.487273 214.279222 
L 398.487273 214.300602 
L 398.487273 214.321981 
L 398.487273 214.34336 
L 398.487273 214.364739 
" clip-path="url(#p7775ef4910)" style="fill: none; stroke: #000000; stroke-width: 1.5; stroke-linecap: square"/>
   </g>
   <g id="line2d_26">
    <path d="M 160.512091 195.074737 
L 159.893614 195.07556 
L 159.27932 195.08326 
L 158.669251 195.097747 
L 158.06345 195.11893 
L 157.461961 195.146719 
L 156.864826 195.181024 
L 156.272089 195.221755 
L 155.683792 195.268822 
L 155.099978 195.322134 
L 154.520691 195.381601 
L 153.945973 195.447133 
L 153.375868 195.518639 
L 152.810419 195.59603 
L 152.249667 195.679215 
L 151.693657 195.768104 
L 151.142432 195.862607 
L 150.596034 195.962633 
L 150.054507 196.068093 
L 149.517893 196.178896 
L 148.986236 196.294952 
L 148.459578 196.41617 
L 147.937963 196.542461 
L 147.421433 196.673734 
L 146.910032 196.809899 
L 146.403802 196.950866 
L 145.902787 197.096544 
L 145.407029 197.246844 
L 144.916572 197.401674 
L 144.431459 197.560946 
L 143.951732 197.724568 
L 143.477435 197.892451 
L 143.00861 198.064504 
L 142.545301 198.240637 
L 142.08755 198.42076 
L 141.635401 198.604782 
L 141.188897 198.792614 
L 140.748081 198.984164 
L 140.312995 199.179344 
L 139.883682 199.378062 
L 139.460186 199.580229 
L 139.04255 199.785754 
L 138.630817 199.994547 
L 138.225029 200.206518 
L 137.82523 200.421576 
L 137.431463 200.639632 
L 137.04377 200.860595 
L 136.662195 201.084374 
L 136.286781 201.31088 
L 135.91757 201.540023 
L 135.554606 201.771712 
L 135.197932 202.005857 
L 134.847591 202.242368 
L 134.503625 202.481154 
L 134.166078 202.722126 
L 133.834993 202.965193 
L 133.510413 203.210265 
L 133.19238 203.457251 
L 132.880938 203.706062 
L 132.57613 203.956607 
L 132.277999 204.208796 
L 131.986587 204.462539 
L 131.701938 204.717746 
L 131.424095 204.974325 
L 131.153101 205.232188 
L 130.888999 205.491244 
L 130.631831 205.751403 
L 130.381642 206.012574 
L 130.138473 206.274667 
L 129.902368 206.537592 
L 129.67337 206.801259 
L 129.451522 207.065578 
L 129.236866 207.330458 
L 129.029447 207.595809 
L 128.829306 207.861541 
L 128.636487 208.127564 
L 128.451034 208.393787 
L 128.272988 208.66012 
L 128.102393 208.926474 
L 127.939292 209.192757 
L 127.783727 209.45888 
L 127.635743 209.724752 
L 127.495382 209.990283 
L 127.362686 210.255384 
L 127.2377 210.519963 
L 127.120465 210.78393 
L 127.011026 211.047196 
L 126.909424 211.309669 
L 126.815704 211.571261 
L 126.729907 211.83188 
L 126.652078 212.091437 
L 126.582258 212.34984 
L 126.520491 212.607001 
L 126.466821 212.862828 
L 126.421289 213.117232 
L 126.38394 213.370122 
L 126.354815 213.621408 
L 126.333959 213.870999 
L 126.321413 214.118807 
L 126.317222 214.364739 
" clip-path="url(#p7775ef4910)" style="fill: none; stroke: #000000; stroke-width: 1.5; stroke-linecap: square"/>
   </g>
   <g id="patch_3">
    <path d="M 57.6 306.295677 
L 57.6 42.760323 
" style="fill: none; stroke: #000000; stroke-width: 0.8; stroke-linejoin: miter; stroke-linecap: square"/>
   </g>
   <g id="patch_4">
    <path d="M 414.72 306.295677 
L 414.72 42.760323 
" style="fill: none; stroke: #000000; stroke-width: 0.8; stroke-linejoin: miter; stroke-linecap: square"/>
   </g>
   <g id="patch_5">
    <path d="M 57.6 306.295677 
L 414.72 306.295677 
" style="fill: none; stroke: #000000; stroke-width: 0.8; stroke-linejoin: miter; stroke-linecap: square"/>
   </g>
   <g id="patch_6">
    <path d="M 57.6 42.760323 
L 414.72 42.760323 
" style="fill: none; stroke: #000000; stroke-width: 0.8; stroke-linejoin: miter; stroke-linecap: square"/>
   </g>
  </g>
 </g>
 <defs>
  <clipPath id="p7775ef4910">
   <rect x="57.6" y="42.760323" width="357.12" height="263.535353"/>
  </clipPath>
 </defs>
</svg>
